<svg id="Capa_1" enable-background="new 0 0 512 512" height="512" viewBox="0 0 512 512" width="512" xmlns="http://www.w3.org/2000/svg"><g><path d="m296 40c0-22.056-17.944-40-40-40s-40 17.944-40 40 17.944 40 40 40 40-17.944 40-40zm-40 20c-11.028 0-20-8.972-20-20s8.972-20 20-20 20 8.972 20 20-8.972 20-20 20z"/><circle cx="485" cy="416" r="10"/><path d="m496.17 449.254c-5.429 1.016-9.006 6.24-7.989 11.668 1.919 10.256 3.122 20.67 3.593 31.077h-107.565c-2.703-8.644.09-18.824 3.271-30.331 4.396-15.9 9.377-33.921-1.133-50.924-10.015-16.211-30.561-18.727-48.688-20.946-24.246-2.969-29.82-5.548-29.82-13.798 0-12.35 20.334-19.962 32.454-23.401 17.515-4.969 35.443-6.419 37.896-6.599h52.566c9.726 10.827 18.506 22.502 26.118 34.779 2.908 4.694 9.07 6.141 13.769 3.23 4.693-2.91 6.14-9.074 3.229-13.768-21.03-33.924-50.504-64.171-86.724-86.476l17.359-46.159 18.154 7.547c2.874 1.195 6.144.983 8.842-.576 2.697-1.558 4.514-4.284 4.914-7.373 0 0 9.723-75.076 9.736-75.265 1.439-19.93-8.684-38.612-25.643-48.406 18.663 3.894 37.697-6.012 45.093-23.805h.001c8.463-20.36-1.215-43.813-21.575-52.282-20.369-8.466-43.827 1.21-52.294 21.576-7.573 18.221-.615 38.909 15.517 49.131-18.653-4.71-38.62 1.332-51.546 16.181-.082.094-.162.189-.24.287l-35.271 43.724s-15.175-52.914-15.219-53.049c-7.039-21.111-26.722-35.296-48.975-35.296-22.252 0-41.935 14.184-48.977 35.296-.045.135-.087.271-.126.409l-15.136 52.808s-35.558-44.037-35.64-44.131c-12.933-14.846-32.911-20.874-51.567-16.149 16.133-10.229 23.084-30.926 15.498-49.146 0 0 0-.001-.001-.002-8.495-20.393-31.889-30.05-52.289-21.548-9.867 4.102-17.545 11.802-21.618 21.684-4.073 9.88-4.053 20.753.055 30.613 7.424 17.832 26.492 27.679 45.115 23.78-16.954 9.796-27.067 28.481-25.617 48.412.014.188.033.376.057.563l9.71 74.7c.401 3.089 2.219 5.814 4.917 7.372 2.697 1.558 5.966 1.769 8.842.571l18.146-7.553 17.379 46.144c-74.765 46.095-124.748 128.551-124.748 218.177 0 5.523 4.477 10 10 10h492c5.522 0 10-4.477 10-10 0-14.945-1.4-30.003-4.161-44.756-1.016-5.429-6.235-9.007-11.669-7.99zm-85.966-382.555c4.244-10.213 15.992-15.006 26.146-10.786 10.18 4.234 15.018 15.959 10.786 26.138-4.234 10.186-15.963 15.028-26.145 10.796-10.18-4.235-15.02-15.965-10.787-26.148zm-39.297 70.635c8.965-10.187 23.365-13.532 35.892-8.322 12.508 5.203 20.287 17.728 19.425 31.224l-7.96 61.429-15.635-6.5c-2.504-1.04-5.323-1.021-7.812.057-2.488 1.078-4.433 3.119-5.388 5.657l-19.908 52.934c-11.938-6.137-24.282-11.305-36.888-15.451l20.115-53.472c1.898-5.045-.545-10.688-5.522-12.756l-15.374-6.387zm-56.873 62.666 16.593 6.896-17.292 45.967c-5.729-1.384-11.52-2.568-17.335-3.54v-49.323zm-87.974-78.566c4.368-12.83 16.375-21.434 29.94-21.434 13.566 0 25.572 8.606 29.94 21.436l16.791 58.564h-16.731c-5.522 0-10 4.477-10 10v56.83c-6.662-.55-13.354-.83-20-.83s-13.338.281-20 .83v-56.83c0-5.523-4.477-10-10-10h-16.727zm-28.185 78.566h18.125v49.321c-5.835.976-11.664 2.169-17.45 3.57l-17.315-45.964zm-107.058-107.072c-10.181 4.238-21.915-.598-26.156-10.784-4.194-10.067.448-21.847 10.785-26.144 10.216-4.256 21.898.589 26.142 10.773 4.239 10.182-.594 21.915-10.771 26.155zm31.621 128.018c-.956-2.538-2.901-4.578-5.39-5.654s-5.309-1.096-7.812-.053l-15.626 6.504-7.985-61.432c-.87-13.493 6.898-26.016 19.4-31.22 12.528-5.219 26.932-1.884 35.899 8.296l39.071 48.392-15.37 6.399c-4.976 2.072-7.414 7.714-5.514 12.757l20.141 53.465c-12.606 4.155-24.948 9.33-36.882 15.471zm-102.209 271.054c1.43-31.179 9.531-62.28 23.66-90.939 20.649 6.696 36.747 14.381 47.88 22.886 16.63 12.703 34.884 43.297 48.75 68.053zm177.68 0h-34.509c-15.882-28.742-37.298-66.995-59.489-83.946-12.235-9.348-29.116-17.681-50.26-24.831 14.3-23.646 32.835-45.102 54.288-62.815 16.898 9.597 39.12 9.888 59.019 10.144 18.684.241 38.004.49 41.644 9.276 4.837 11.675-4.686 23.037-19.767 39.038-11.913 12.64-23.164 24.578-20.866 38.737 2.591 15.963 15.778 22.542 25.406 27.346 9.487 4.733 13.734 7.36 14.594 12.659.765 4.693-3.104 20.221-10.06 34.392zm170.295-35.66c-3.096 11.199-6.475 23.452-4.533 35.66h-143.896c5.274-12.87 9.498-28.006 7.935-37.602-2.591-15.963-15.778-22.542-25.406-27.346-9.487-4.733-13.734-7.36-14.594-12.654-.717-4.418 8.76-14.474 15.679-21.815 15.077-15.998 33.841-35.907 23.689-60.409-8.681-20.961-34.7-21.296-59.863-21.62-14.434-.186-29.199-.394-40.856-3.951 38.851-26.362 83.752-40.603 129.641-40.603 56.548 0 111.394 21.726 154.622 60 0 0-33.204.007-33.415.02-9.146.58-89.367 6.907-89.367 49.98 0 26.877 24.806 30.885 47.389 33.65 14.325 1.754 29.139 3.568 34.105 11.607 5.92 9.578 2.652 21.398-1.13 35.083z"/></g></svg>